<svg width="0" height="0" class="hidden">
  <symbol xmlns="http://www.w3.org/2000/svg" viewBox="0 0 16 16" id="success">
    <path d="M8.97 4.97a.75.75 0 0 1 1.07 1.05l-3.99 4.99a.75.75 0 0 1-1.08.02L2.324 8.384a.75.75 0 1 1 1.06-1.06l2.094 2.093L8.95 4.992a.252.252 0 0 1 .02-.022zm-.92 5.14.92.92a.75.75 0 0 0 1.079-.02l3.992-4.99a.75.75 0 1 0-1.091-1.028L9.477 9.417l-.485-.486-.943 1.179z"></path>
  </symbol>

  <symbol xmlns="http://www.w3.org/2000/svg" stroke-width="2" stroke-linecap="round" stroke-linejoin="round" fill="none" color="#000000" viewBox="0 0 24 24" id="error">
    <path d="M12 8L12 13"></path>
    <line x1="12" y1="16" x2="12" y2="16"></line>
    <circle cx="12" cy="12" r="10"></circle>
  </symbol>

  <symbol xmlns="http://www.w3.org/2000/svg" preserveAspectRatio="xMidYMid" viewBox="0 0 100 100" id="loading">
    <circle cx="50" cy="50" fill="none" stroke-width="10" r="35" stroke-dasharray="164.93361431346415 56.97787143782138">
    </circle>
  </symbol>

  <symbol fill="none" xmlns="http://www.w3.org/2000/svg" viewBox="0 0 24 24" id="send">
    <path d="M20 4L3 11L10 14M20 4L13 21L10 14M20 4L10 14" stroke-width="1.5" stroke-linecap="round" stroke-linejoin="round"></path>
  </symbol>
</svg>